<svg version="1.0" xmlns="http://www.w3.org/2000/svg" width="5461.333" height="5461.333" viewBox="0 0 4096 4096"><path d="M923.5 1.5c-13.8 2.6-21.3 6.4-29.3 14.9-5.8 6.1-9.1 12.4-11.9 22.6-1.7 6.2-1.8 86.9-1.8 2009s.1 2002.8 1.8 2009c5.4 19.8 16.4 30.9 36.2 36.7 5.6 1.7 18.9 1.8 225 2.1 243.7.3 230 .6 244.3-6.4 9.4-4.6 16.5-11.7 20.8-20.8 6.9-14.9 6.4 24.6 6.4-463.5v-440.9l123.2-117.2 123.2-117.2 2.1 2.4c1.1 1.3 200 254.3 442 562.3 242 307.9 442.7 562.8 446 566.3 11.1 12 26.6 22.8 41.5 28.9 16.3 6.8-6.6 6.3 305.2 6.3 306.8 0 288.4.3 299.6-5.4 5.7-2.9 11.6-8.8 13.6-13.7 1.4-3.4 1.2-5.2-4.1-34.2l-5.7-30.7-555.4-690.2c-305.5-379.7-567.9-705.9-583.2-724.9l-27.8-34.5 560.2-542.2c423.7-410 560.9-543.4 562.9-547 7.7-14.1 7.7-34.1-.1-50-3.9-8.1-13.1-17.5-20.6-21.2-12.9-6.4 7.5-6-303.1-6-187.8 0-285.2.4-289.5 1-21.1 3.4-44.2 15.9-64.6 35.2-4.3 4-245.3 247.4-535.7 540.8-290.4 293.4-528.4 533.6-528.8 533.8-.5.2-.9-543.8-.9-1228.3 0-1106.8-.2-1229.3-1.6-1236.3-4.1-20.7-15.9-33.8-35.9-39.8-5.7-1.8-16.8-1.9-226.5-2C971.4.2 929.2.4 923.5 1.5z"/></svg>