<svg version="1.0" xmlns="http://www.w3.org/2000/svg" width="680" height="680" viewBox="0 0 510 510"><path d="M249.8 5.5c-.2.1-8.4.5-18.3.9-17 .5-20.1.8-28.5 2.2-1.9.4-5.1.8-7 1-10.5 1.1-32.3 5.5-39 7.9-2.5.9-5.2 1.8-6 2-2.9.7-17.5 6-18 6.5-.8.8-6.4 3.4-7.5 3.5-.5 0-4.5 1.9-8.8 4.3-4.3 2.3-8.3 4.2-8.8 4.2s-.9.4-.9.9-1.3 1.4-3 2.1c-1.6.7-4.2 2.3-5.7 3.6-1.6 1.3-3.3 2.4-3.8 2.4-.6 0-2.1 1-3.5 2.2-1.4 1.3-4.5 3.9-7 5.9C78.3 59.8 67.9 70 68.8 70c.4 0-.1.7-1 1.4C65.6 73 58 84.1 53.9 91.6c-3.5 6.5-9.1 19.4-8.3 19.4.3 0-.1 1-.7 2.2-.7 1.3-1.4 3.4-1.5 4.8-.1 1.4-.6 4.3-1.1 6.5-.9 5-.9 21.9.1 26.3.4 1.7 1.4 4.4 2.2 6 .7 1.5 1.4 3.1 1.4 3.7 0 .5 1.1 2.3 2.5 3.9 1.3 1.6 2.7 3.7 3 4.7.4 1 1 1.8 1.5 1.6.4-.1 1.6.7 2.6 1.9 2.4 2.5 10.9 8.4 12.3 8.4.6 0 1.1.5 1.1 1.2 0 .6.3.8.6.5.4-.3 1.5-.2 2.6.4 1.1.6 2.8 1.2 3.9 1.5 1 .2 2.9.7 4.1 1 3.1.8 22.8 1.1 23.3.4.2-.3 1.8-.7 3.6-.8 7.5-.6 15.1-6 20.8-14.6 1.4-2.3 3.4-5 4.3-6 1-1.1 1.8-2.3 1.8-2.7 0-.6 8.1-13 10.7-16.4.4-.6 2.4-3.4 4.3-6.3 1.9-2.8 3.8-5.2 4.3-5.2.4 0 .7-.6.7-1.3 0-2.2 18.8-20.7 21-20.7.5 0 1-.5 1-1 0-.6.5-1 1.1-1 .6 0 1.7-.6 2.4-1.3 3.3-2.9 4.5-3.7 5.4-3.7.5 0 1.6-.6 2.3-1.3 1.4-1.3 6.8-3.6 10.6-4.4 1.2-.3 2.2-.8 2.2-1.2 0-.4.8-.7 1.8-.8.9 0 4.4-.8 7.7-1.6 3.3-.9 8.3-1.9 11-2.2 2.8-.3 7.7-.8 11-1.2 13.4-1.5 59.5-.2 59.5 1.7 0 .4 1.4.6 3 .5 1.7-.1 3 .1 3 .5s1 .6 2.2.5c1.2-.1 3.4.4 4.8 1.2 1.4.7 2.9 1.3 3.3 1.3 1.5 0 12.4 5.7 14.8 7.8 5.6 4.8 6.6 5.9 9.1 9.2 3.1 4.3 9.1 15 8.3 15-.3 0 .2 1.1 1.1 2.4.8 1.4 1.6 2.9 1.6 3.3 0 .4.2 1.2.3 1.8 2 7.3 3.6 13.8 4.1 17 .3 2.2 1.1 4.8 1.6 5.9.7 1.3.7 1.6-.1 1.2-.8-.5-.8 0-.2 1.6.4 1.3.8 3.5.7 5-.1 1.6.1 2.8.5 2.8.3 0 .5 2.1.5 4.6-.1 2.5.3 4.8.7 5.1.4.3.4 1-.2 1.6-.9 1.2-1.1 1.8-1.1 3.6 0 .5-1.9 1.2-4.2 1.6-2.4.4-5.4 1.2-6.8 1.8-1.4.5-3.4 1.2-4.4 1.4-1.1.2-4 1-6.4 1.9-2.5.8-4.7 1.2-5 .9-.3-.2-1-.1-1.6.4-.6.5-2.4 1.1-4.1 1.4-1.6.3-5 1.1-7.5 1.8s-4.8 1.3-5.2 1.5c-.5.1-.9.2-1 .4-.2.1-1 .3-1.8.5l-8 2c-2.5.6-3.7.9-13 3.1-4.1.9-8.1 1.7-8.7 1.7-.7 0-1.3.3-1.3.6 0 .5-2.1.9-7.2 1.4-1 .1-1.8.5-1.8.9s-.8.7-1.7.7c-2.4-.1-7.5.9-14.4 2.7-3.1.8-6.9 1.4-8.3 1.4-1.4 0-2.6.3-2.6.8 0 .4-1.2.8-2.7.9-1.6 0-4.1.4-5.8.8-1.6.4-3.7.9-4.5 1-.8.1-2.2.5-3 .8-.8.3-6.4 1.5-12.5 2.7-6 1.2-11.9 2.4-13 2.7-1.1.2-3.6.7-5.5.9-1.9.3-4.2.8-5 1.1-.8.4-2.6.8-4 .9-1.4.2-4.7.8-7.5 1.4-2.7.6-6.6 1.3-8.5 1.6-1.9.3-3.7.9-4 1.3-.3.3-1.6.7-3 .8-1.4.1-3.8.5-5.5.8-1.6.3-3.9.7-5 .8-1.1.2-2.6.6-3.3 1.1-.7.4-1.6.5-1.9.2-.3-.3-1.3-.1-2.3.4-.9.5-2.9 1.1-4.4 1.4-1.5.3-5.3 1.3-8.4 2.2-3.1 1-6 1.7-6.4 1.6-.5-.1-.8.3-.8.9 0 .6-.6.9-1.4.6-.8-.3-1.7-.3-2.1.1-.4.4-1 .7-1.3.8-1.6.2-7.7 2.8-12.9 5.5-3 1.6-6 2.6-6.4 2.3-.5-.3-.9-.1-.9.4s-1.9 1.7-4.1 2.8c-2.3 1-4.7 2.3-5.3 2.9-1.6 1.5-7 4.9-7.4 4.6-.2-.1-1.2.7-2.1 1.8-1 1.2-2.1 2.1-2.4 2.1-1.8 0-22.7 20.2-22.7 21.9 0 .7-.4 1-.9.6-.5-.3-1.2.3-1.6 1.4-.3 1.1-1.9 3.4-3.5 5.3-1.6 1.8-3 3.7-3 4.2 0 .4-1.3 2.7-2.8 5-6.3 9.3-15.6 35.1-14.4 39.9.1.4-.1.7-.6.7-.9 0-1.2 3.7-1.6 25.2-.1 9.8 0 17.8.4 17.8s.7.6.7 1.2c0 2.8 1.5 11.5 2.5 15.3.6 2.2 1.1 4.4 1.2 5 .1.5.8 2 1.4 3.3.7 1.2 1.1 2.6.8 3.1-.3.5.1 1.4.9 2.1.8.7 1.5 2 1.5 2.9 0 .9.7 2.7 1.6 3.9.8 1.2 1.3 2.2 1 2.2-.3 0 .9 2.4 2.6 5.3 1.7 2.8 3.1 5.7 3.1 6.4 0 .7.3 1 .7.8.3-.2 1.1.9 1.8 2.4s2.1 3.7 3.2 4.9c1.2 1.2 1.8 2.2 1.5 2.2-.4 0 0 .6.7 1.4.7.7 3.1 3.5 5.3 6.1 5.3 6.5 12.6 13.7 17.2 17.2 2.1 1.5 4.6 3.6 5.7 4.5 1 .9 3.2 2.4 5 3.2 1.7.9 2.7 1.6 2.1 1.6-.5.1.4.7 2 1.6 1.7.8 3.9 2 5 2.7 4.7 2.9 9.1 5.1 9.9 4.9.4-.2 1.3.3 2 1.1 1.2 1.4 12.1 6 14.3 6 .7 0 1.3.4 1.3.8 0 .5.7.6 1.5.3.8-.4 1.5-.1 1.5.5s.8 1.1 1.7 1.1c1.7 0 7.5 1.7 10.3 2.9.8.4 3.5.8 6 1 2.5.2 5.2.7 6.1 1.2.9.4 1.9.6 2.2.2.3-.3 1.4-.2 2.4.2 1.8.8 7 1.1 26.8 1.9 7.7.3 11.2.1 11.7-.7.5-.7.8-.8.8-.1 0 1.1 10.1 1.1 11.9-.1.6-.3 1.1-.1 1.1.5 0 .8.6.8 2.1 0 1.1-.7 2.7-.9 3.5-.6.8.3 1.4.2 1.4-.3 0-.4 1.8-.7 4-.7 2.2.1 4-.2 4-.5s1.9-.7 4.3-.8c6.9-.2 10.6-.9 21.2-3.7 1.1-.3 2.7-.7 3.5-.9.8-.2 1.5-.4 1.5-.5 0-.1 1.3-.4 3-.6 1.6-.3 3.2-.8 3.5-1.2.5-.7 1.4-1 4.8-1.5.9-.1 2.2-.5 2.7-.8.6-.3 2.9-1.1 5.3-1.9 2.3-.7 4.2-1.7 4.2-2.1 0-.5.7-.6 1.5-.3.8.4 1.5.1 1.5-.5s.3-1 .8-.9c.8.1 2.7-.6 9.2-3.5 2.5-1.1 4.8-1.9 5.3-1.9.4.1.7-.3.7-.9 0-.6.7-.9 1.5-.5.8.3 1.5.1 1.5-.3 0-.5 2.9-2.3 6.4-4 3.6-1.7 6.8-3.6 7.1-4.1.4-.6 1.1-.8 1.6-.5.5.4 1.2-.1 1.5-1 .4-.9 1.3-1.4 2.1-1.1.8.3 1.1.1.8-.4-.3-.6.3-1 1.4-1 1.2 0 2.1-.4 2.1-.8 0-.5 2.1-2.1 4.8-3.6 8.2-4.7 11.7-6.8 12.2-7.5.8-1 6.9-5.1 7.5-5.1.4 0 1.3-.6 2-1.3 2.1-1.8 3.7-3 7.3-5.6 1.8-1.3 4.7-3.6 6.5-5.2 1.7-1.6 3.6-2.9 4.2-2.9 1 0 7.5 9.6 7.5 11.1 0 .5.5.9 1 .9.6 0 1 .7 1 1.5 0 .9.7 1.8 1.5 2.1.8.4 1.2 1 .9 1.5-.3.5 0 .9.5.9.6 0 1.1.7 1.1 1.5 0 .9.7 1.8 1.5 2.1.8.4 1.2 1 .9 1.5-.3.5-.2.9.3.9.4 0 2.4 2.3 4.3 5s3.8 5 4.3 5c.4 0 .7.4.7 1 0 1.1 1.9 3.5 7.3 9.2 2 2.2 3.7 4.4 3.7 4.9s.5.9 1.1.9c.6 0 2.3 1.2 3.7 2.8 3.1 3.1 10.7 9.2 11.6 9.2.4 0 2.5 1.2 4.9 2.7 2.3 1.4 4.2 2.5 4.2 2.4 0-.5 6 1 7.8 2 1.2.6 1.7.6 1.7-.3 0-.9.2-1 .8-.2.8 1.3 11 1.4 13 .1.7-.5 1.2-.3 1.2.5 0 .9.3.9 1-.2.5-.8 1-1.2 1-.7 0 .4 1.6.1 3.5-.7 2-.9 3.8-1.5 4-1.6 3.5-.5 6.7-1.4 7.1-2.1.3-.5 1-.7 1.5-.4.5.4.9.1.9-.4 0-.6.4-1.1 1-1.1.5 0 1.8-.7 2.7-1.5 1-.8 2.1-1.5 2.6-1.5.8 0 2-1 10.1-8.9 3.1-3 5.8-6.3 6.2-7.3.3-1 .9-1.8 1.3-1.8.8 0 3.6-7.1 3.3-8.3-.1-.4.2-.7.6-.7.5 0 .9-.6 1-1.3.1-.6.4-2.6.6-4.2.7-4.2.8-10.4.1-14.5-.9-5.2-1.3-7.5-1.5-7.5-.1 0-.4-1.1-.6-2.5-1.2-6.7-5.9-22.6-6.8-23.2-.6-.4-.8-.8-.4-.8s.1-1.8-.7-4c-.8-2.2-1.2-4-1-4 .3 0 0-1.2-.6-2.8-1.3-3.1-2.1-6.9-2.3-9.5 0-.9-.5-1.7-1-1.7s-.7-.3-.4-.6c.4-.3.2-2-.4-3.7-.5-1.8-1.2-4.8-1.4-6.7-.2-1.9-.7-4.2-1.1-5-1.9-4.8-3.9-33-3.6-53 .4-35.8.4-145.3-.1-153-.9-13.6-2-24.5-2.5-25.3-.1-.1-.4-2.2-.6-4.7-.2-2.5-.6-5.9-1-7.5-.3-1.7-.8-4.4-1.1-6-.5-3.7-1.2-6.8-1.5-7.5-.1-.3-.3-1-.4-1.5-.8-4.7-2.9-13.2-3.6-14.4-.4-.9-2.2-5.6-4-10.6-3.1-8.6-5-12.6-8.5-18.1-.9-1.3-1.3-2.4-1-2.4.8 0-4.3-7.1-5.9-8.2-.5-.4-.7-.8-.3-.8.9 0-1.9-3.4-7.4-9.3-2.1-2.2-3.8-4.1-3.8-4.3 0-.2-1.1-1.4-2.5-2.8s-2.5-2.2-2.5-1.9c0 .3-.8-.4-1.9-1.5-1-1.2-2.1-1.9-2.5-1.5-.3.3-.6.1-.6-.5 0-.7-3.4-3.4-7.5-6.1-4.1-2.8-7.5-4.8-7.5-4.5 0 .3-.7-.2-1.6-1-.8-.9-2.2-1.6-3-1.6-.8 0-1.4-.5-1.4-1 0-.6-.8-1-1.7-1-1 0-2.7-.7-3.7-1.5s-2.3-1.2-2.7-.9c-.5.3-.9.1-.9-.4 0-.6-2-1.6-4.5-2.3-2.5-.7-4.5-1.7-4.5-2.1 0-.4-.7-.5-1.5-.2-.8.4-1.5.1-1.5-.5s-.7-.8-1.5-.5c-.8.4-1.5.2-1.5-.3s-.6-1-1.2-1c-3-.1-7.1-1.3-8.4-2.4-.8-.6-1.4-.8-1.4-.5 0 .4-.8.3-1.7-.3-1-.5-3.9-1.2-6.5-1.5-2.6-.4-5.3-.9-6-1.1-.7-.2-2.5-.7-4-1-1.6-.3-3.8-.7-5-.9-4.7-.9-10.5-1.7-15.4-2.1-2.9-.2-8-.9-11.5-1.4-9.3-1.5-61.9-3.6-63.1-2.6zm100.1 254.4c.9.6 1 1.1.2 1.5-.7.4-.8 1.4-.3 2.4.9 1.9.8 8.9-.1 9.8-.4.4-.2 1.5.3 2.5.7 1.2.7 2 0 2.4-.7.4-.7 1.2 0 2.4.5 1 .7 2.1.4 2.3-.3.3-.7 6.3-.9 13.4-.5 12-1.1 21.9-1.5 21.9-.1 0-.3 1.5-.5 3.4-2.2 21-8.9 41.6-17.2 52.8-1.3 1.8-2.5 3.6-2.6 4-.5 2.1-13.7 15.9-14.8 15.6-.5-.2-.9.4-.9 1.3 0 .8-.4 1.2-1 .9-.5-.3-1-.2-1 .3 0 .6-2 2.3-4.5 3.9-2.5 1.5-4.5 3.1-4.5 3.5 0 .5-.7.8-1.5.8s-1.5.3-1.5.7c0 .5-1 1.3-2.3 1.9l-7.2 3.6c-6.5 3.4-12.7 6.1-19.5 8.4-3 1-5.7 2.1-6 2.4-.3.3-1 .6-1.6.7-.6.1-2.3.5-3.8.8-7.9 1.6-12.4 2.3-19.1 3-2.7.2-7.7.7-11 1.1-7.2.7-6.4.7-15 0-7.4-.6-10.4-1.1-17-2.7-2.2-.6-4.6-1.1-5.2-1.1-.7-.1-1.3-.5-1.3-.9 0-.5-.7-.6-1.5-.3-.8.4-1.5.2-1.5-.4 0-.5-.7-1.3-1.6-1.6-1-.4-1.3-.2-.8.7.4.6-.1.5-1.2-.4-1-.9-3.4-2.2-5.1-3-1.8-.8-3.3-1.7-3.3-2.1 0-.5-.5-.8-1.2-.8s-2.1-.9-3.3-1.9c-1.1-1.1-4.3-4.1-7.1-6.8-2.8-2.6-6.1-6.4-7.4-8.3-1.3-1.9-2.7-3.7-3-4-.3-.3-1.4-2.4-2.4-4.8-1.1-2.3-2.4-4.2-2.9-4.2-.6 0-.7-.3-.4-.6.3-.4.2-1.5-.3-2.5-.6-1-1.2-3.3-1.4-5.1-.3-1.8-.6-3.3-.7-3.3-.4 0-.8-5.7-.8-14.5 0-12 .2-14 1.1-14 .4 0 .5-.9.3-2s.1-2.2.6-2.5c.5-.4.7-1.1.4-1.6-.4-.5-.1-.9.4-.9.6 0 1.1-.8 1.1-1.9 0-1 .7-2.4 1.5-3.1.8-.7 1.5-1.8 1.5-2.5s2.2-3.6 4.8-6.4c2.6-2.8 4.6-5.1 4.4-5.1-.3 0 1.7-1.7 4.4-3.7s5.1-4.1 5.2-4.5c.2-.4 1-.8 1.8-.8s1.4-.5 1.4-1.2c0-.6.3-.8.6-.5.4.4 1.9-.2 3.3-1.2 4.1-2.9 12.9-7 13.5-6.4.3.4.6 0 .6-.7s.3-1.1.6-.7c.3.3 2.5-.1 4.7-1 2.3-.8 5.3-1.6 6.7-1.8 1.4-.1 3.7-.8 5.3-1.4 1.5-.6 2.7-.8 2.7-.6 0 .2 1.2 0 2.8-.6 1.5-.6 3.8-1.3 5.2-1.4 1.4-.2 3.6-.6 5-1 1.4-.3 3.6-.8 5-1.1 1.4-.3 4.3-1 6.5-1.5 2.2-.6 5.1-1.2 6.5-1.4 1.4-.1 2.5-.4 2.5-.5 0-.1.9-.3 1.9-.5 1.1-.2 3.1-.7 4.5-1.1 1.4-.4 3.5-.8 4.6-.9 1.1-.1 2.7-.4 3.5-.8.8-.3 2.9-.8 4.5-1.1 9.3-1.5 14.6-2.6 15.3-3 1.1-.7 6.2-1.8 9-1.9 1.2-.1 2.2-.5 2.2-1s.7-.7 1.5-.4c.8.4 1.7.2 2-.3.3-.5 1.3-.9 2.3-.8 1.9 0 3.2-.3 12.5-2.7 3.4-.9 6.9-1.8 7.7-2 .8-.2 1.6-.4 1.8-.5.1-.2.7-.4 1.2-.5.6-.1 1.1-.3 1.3-.5.1-.1 1.3-.4 2.7-.6 4.1-.7 5.4-1.1 8.3-2.3 1.5-.6 4-1.4 5.5-1.7 1.5-.4 3.2-.9 3.7-1.3.6-.3 1.5-.6 2-.7 2.5-.3 5.5-1.7 5.5-2.5 0-1.1 1.1-1.1 2.9 0z"/></svg>